<svg width="12" height="20" viewBox="0 0 12 20" fill="none" xmlns="http://www.w3.org/2000/svg">
<path d="M9.125 19.1L0.699999 10.7C0.599999 10.6 0.529332 10.4917 0.487999 10.375C0.445999 10.2583 0.424999 10.1333 0.424999 9.99999C0.424999 9.86666 0.445999 9.74166 0.487999 9.62499C0.529332 9.50833 0.599999 9.39999 0.699999 9.29999L9.125 0.874994C9.35833 0.64166 9.65 0.524994 10 0.524994C10.35 0.524994 10.65 0.649994 10.9 0.899994C11.15 1.14999 11.275 1.44166 11.275 1.77499C11.275 2.10833 11.15 2.39999 10.9 2.64999L3.55 9.99999L10.9 17.35C11.1333 17.5833 11.25 17.8707 11.25 18.212C11.25 18.554 11.125 18.85 10.875 19.1C10.625 19.35 10.3333 19.475 10 19.475C9.66667 19.475 9.375 19.35 9.125 19.1Z" fill="white"/>
</svg>
